<mxfile host="app.diagrams.net" modified="2020-08-06T06:55:55.863Z" agent="5.0 (Windows NT 10.0; Win64; x64) AppleWebKit/537.36 (KHTML, like Gecko) Chrome/84.0.4147.89 Safari/537.36" etag="9Rwdz8TB01F4zbCZR-Gi" version="13.6.0" type="github">
  <diagram id="MtzvJQ1q3P5HI-TOtuv1" name="Page-1">
    <mxGraphModel dx="1422" dy="713" grid="1" gridSize="10" guides="1" tooltips="1" connect="1" arrows="1" fold="1" page="1" pageScale="1" pageWidth="1169" pageHeight="827" math="0" shadow="0">
      <root>
        <mxCell id="0" />
        <mxCell id="1" parent="0" />
        <mxCell id="k7DeWXXC1MOdUAD8JUGN-9" value="" style="rounded=0;whiteSpace=wrap;html=1;strokeWidth=1;fillColor=#dae8fc;strokeColor=#6c8ebf;" vertex="1" parent="1">
          <mxGeometry x="160" y="380" width="210" height="40" as="geometry" />
        </mxCell>
        <mxCell id="k7DeWXXC1MOdUAD8JUGN-3" value="" style="rounded=0;whiteSpace=wrap;html=1;strokeWidth=1;fillColor=#dae8fc;strokeColor=#6c8ebf;" vertex="1" parent="1">
          <mxGeometry x="160" y="230" width="210" height="40" as="geometry" />
        </mxCell>
        <mxCell id="k7DeWXXC1MOdUAD8JUGN-4" value="" style="rounded=0;whiteSpace=wrap;html=1;strokeWidth=1;fillColor=#dae8fc;strokeColor=#6c8ebf;" vertex="1" parent="1">
          <mxGeometry x="160" y="180" width="210" height="40" as="geometry" />
        </mxCell>
        <mxCell id="k7DeWXXC1MOdUAD8JUGN-5" value="" style="rounded=0;whiteSpace=wrap;html=1;strokeWidth=1;fillColor=#dae8fc;strokeColor=#6c8ebf;" vertex="1" parent="1">
          <mxGeometry x="160" y="130" width="210" height="40" as="geometry" />
        </mxCell>
        <mxCell id="k7DeWXXC1MOdUAD8JUGN-6" value="" style="rounded=0;whiteSpace=wrap;html=1;strokeWidth=1;fillColor=#dae8fc;strokeColor=#6c8ebf;" vertex="1" parent="1">
          <mxGeometry x="160" y="80" width="210" height="40" as="geometry" />
        </mxCell>
        <mxCell id="k7DeWXXC1MOdUAD8JUGN-7" value="" style="rounded=0;whiteSpace=wrap;html=1;strokeWidth=1;fillColor=#dae8fc;strokeColor=#6c8ebf;" vertex="1" parent="1">
          <mxGeometry x="160" y="280" width="210" height="40" as="geometry" />
        </mxCell>
        <mxCell id="k7DeWXXC1MOdUAD8JUGN-8" value="" style="rounded=0;whiteSpace=wrap;html=1;strokeWidth=1;fillColor=#dae8fc;strokeColor=#6c8ebf;" vertex="1" parent="1">
          <mxGeometry x="160" y="330" width="210" height="40" as="geometry" />
        </mxCell>
        <mxCell id="k7DeWXXC1MOdUAD8JUGN-10" value="" style="rounded=0;whiteSpace=wrap;html=1;strokeWidth=1;fillColor=#dae8fc;strokeColor=#6c8ebf;" vertex="1" parent="1">
          <mxGeometry x="160" y="430" width="210" height="40" as="geometry" />
        </mxCell>
        <mxCell id="k7DeWXXC1MOdUAD8JUGN-11" value="" style="rounded=0;whiteSpace=wrap;html=1;strokeWidth=1;fillColor=#dae8fc;strokeColor=#6c8ebf;" vertex="1" parent="1">
          <mxGeometry x="160" y="480" width="210" height="40" as="geometry" />
        </mxCell>
        <mxCell id="k7DeWXXC1MOdUAD8JUGN-12" value="" style="rounded=0;whiteSpace=wrap;html=1;strokeWidth=1;fillColor=#dae8fc;strokeColor=#6c8ebf;" vertex="1" parent="1">
          <mxGeometry x="160" y="530" width="210" height="40" as="geometry" />
        </mxCell>
        <mxCell id="k7DeWXXC1MOdUAD8JUGN-13" value="" style="rounded=0;whiteSpace=wrap;html=1;strokeWidth=1;fillColor=#dae8fc;strokeColor=#6c8ebf;" vertex="1" parent="1">
          <mxGeometry x="160" y="580" width="210" height="40" as="geometry" />
        </mxCell>
        <mxCell id="k7DeWXXC1MOdUAD8JUGN-14" value="" style="rounded=0;whiteSpace=wrap;html=1;strokeWidth=1;fillColor=#dae8fc;strokeColor=#6c8ebf;" vertex="1" parent="1">
          <mxGeometry x="160" y="630" width="210" height="40" as="geometry" />
        </mxCell>
        <mxCell id="k7DeWXXC1MOdUAD8JUGN-15" value="" style="rounded=0;whiteSpace=wrap;html=1;strokeWidth=1;fillColor=#dae8fc;strokeColor=#6c8ebf;" vertex="1" parent="1">
          <mxGeometry x="160" y="680" width="210" height="40" as="geometry" />
        </mxCell>
        <mxCell id="k7DeWXXC1MOdUAD8JUGN-16" value="" style="rounded=0;whiteSpace=wrap;html=1;strokeWidth=1;fillColor=#f5f5f5;strokeColor=#666666;fontColor=#333333;" vertex="1" parent="1">
          <mxGeometry x="160" y="730" width="210" height="40" as="geometry" />
        </mxCell>
        <mxCell id="k7DeWXXC1MOdUAD8JUGN-17" value="" style="rounded=0;whiteSpace=wrap;html=1;strokeWidth=1;fillColor=#f5f5f5;strokeColor=#666666;fontColor=#333333;" vertex="1" parent="1">
          <mxGeometry x="160" y="30" width="210" height="40" as="geometry" />
        </mxCell>
        <mxCell id="k7DeWXXC1MOdUAD8JUGN-18" value="&lt;font style=&quot;font-size: 17px&quot;&gt;&lt;b&gt;FirstIndex&lt;/b&gt;&lt;/font&gt;" style="text;html=1;strokeColor=none;fillColor=none;align=center;verticalAlign=middle;whiteSpace=wrap;rounded=0;" vertex="1" parent="1">
          <mxGeometry x="390" y="90" width="100" height="20" as="geometry" />
        </mxCell>
        <mxCell id="k7DeWXXC1MOdUAD8JUGN-19" value="&lt;span style=&quot;font-size: 17px&quot;&gt;&lt;b&gt;LastIndex&lt;/b&gt;&lt;/span&gt;" style="text;html=1;strokeColor=none;fillColor=none;align=center;verticalAlign=middle;whiteSpace=wrap;rounded=0;" vertex="1" parent="1">
          <mxGeometry x="390" y="690" width="100" height="20" as="geometry" />
        </mxCell>
        <mxCell id="k7DeWXXC1MOdUAD8JUGN-20" value="&lt;font style=&quot;font-size: 17px&quot;&gt;&lt;b&gt;Old-FirstIndex&lt;/b&gt;&lt;/font&gt;" style="text;html=1;strokeColor=none;fillColor=none;align=center;verticalAlign=middle;whiteSpace=wrap;rounded=0;" vertex="1" parent="1">
          <mxGeometry x="380" y="240" width="150" height="20" as="geometry" />
        </mxCell>
        <mxCell id="k7DeWXXC1MOdUAD8JUGN-21" value="&lt;font style=&quot;font-size: 17px&quot;&gt;&lt;b&gt;Old-LastIndex&lt;/b&gt;&lt;/font&gt;" style="text;html=1;strokeColor=none;fillColor=none;align=center;verticalAlign=middle;whiteSpace=wrap;rounded=0;" vertex="1" parent="1">
          <mxGeometry x="380" y="490" width="150" height="20" as="geometry" />
        </mxCell>
        <mxCell id="k7DeWXXC1MOdUAD8JUGN-2" value="" style="rounded=0;whiteSpace=wrap;html=1;strokeWidth=3;dashed=1;fillColor=none;" vertex="1" parent="1">
          <mxGeometry x="160" y="250" width="210" height="290" as="geometry" />
        </mxCell>
      </root>
    </mxGraphModel>
  </diagram>
</mxfile>
